<?xml version="1.0" standalone="no"?>
<!DOCTYPE svg PUBLIC "-//W3C//DTD SVG 20010904//EN"
 "http://www.w3.org/TR/2001/REC-SVG-20010904/DTD/svg10.dtd">
<svg version="1.0" xmlns="http://www.w3.org/2000/svg" 
 width="1024.000000pt" height="1024.000000pt" viewBox="0 0 1024.000000 1024.000000"
 preserveAspectRatio="xMidYMid meet">

<g transform="translate(0.000000,1024.000000) scale(0.100000,-0.100000)"
fill="#000000" stroke="none">
<path d="M4825 8640 c-497 -27 -1011 -180 -1455 -433 -252 -144 -422 -273
-634 -477 -445 -431 -754 -966 -906 -1569 -113 -447 -118 -1035 -15 -1496 53
-235 130 -464 212 -628 l43 -87 49 58 c27 32 67 73 90 91 43 34 152 94 188
103 l23 6 -31 74 c-110 261 -184 554 -208 828 -56 612 76 1203 386 1721 249
418 586 754 1008 1004 436 258 996 401 1495 382 526 -21 1000 -172 1420 -452
176 -118 274 -198 436 -360 454 -453 728 -1025 805 -1680 18 -154 16 -499 -5
-660 -43 -337 -132 -629 -283 -927 -41 -81 -74 -151 -73 -155 1 -5 31 -15 69
-25 85 -21 160 -65 234 -136 l58 -57 19 25 c31 41 154 296 204 422 260 662
291 1457 85 2138 -62 206 -103 310 -194 495 -247 499 -604 920 -1045 1231
-404 285 -861 465 -1365 539 -93 13 -428 38 -460 33 -5 0 -73 -4 -150 -8z"/>
<path d="M4770 7869 c-520 -48 -1013 -279 -1376 -645 -359 -362 -582 -790
-661 -1269 -20 -126 -28 -475 -14 -605 46 -406 206 -792 461 -1115 87 -111
303 -322 413 -404 258 -194 523 -319 845 -400 199 -50 325 -65 552 -65 279 0
478 32 753 120 113 37 317 128 394 177 l42 27 169 -208 c93 -114 173 -207 180
-207 6 0 116 99 244 220 128 122 255 241 282 266 37 34 47 49 40 61 -10 17
-154 145 -282 251 -45 38 -82 73 -82 79 0 5 27 42 59 81 230 280 388 678 437
1102 20 167 14 459 -10 600 -100 564 -366 1028 -811 1412 -445 385 -1043 575
-1635 522z m300 -399 c392 -29 727 -161 1042 -412 104 -82 256 -240 339 -352
516 -690 500 -1625 -39 -2289 -213 -262 -551 -482 -886 -576 -206 -58 -270
-66 -531 -66 -211 0 -254 3 -355 23 -527 107 -954 397 -1245 845 -265 408
-343 944 -211 1441 96 362 329 723 626 971 286 238 654 388 1019 414 58 5 108
9 111 9 3 1 61 -3 130 -8z m1644 -3593 l69 -63 -102 -99 c-56 -54 -110 -105
-121 -112 -23 -16 -12 -26 -138 126 l-62 76 52 45 c29 25 78 68 108 97 l54 51
36 -29 c19 -16 66 -57 104 -92z"/>
<path d="M4590 7103 c-158 -26 -306 -133 -374 -270 -47 -92 -56 -159 -56 -404
l0 -226 -72 18 c-341 86 -668 -136 -733 -496 -52 -287 73 -558 315 -684 131
-69 253 -85 407 -56 43 8 79 15 81 15 1 0 2 -58 2 -130 l0 -130 525 0 525 0 0
78 c0 72 -3 82 -39 143 -50 86 -61 120 -61 186 0 256 369 308 456 64 7 -20 13
-64 14 -98 l0 -63 280 0 c154 0 280 -3 280 -6 0 -17 -99 -194 -137 -245 -133
-176 -360 -314 -573 -348 -91 -15 -250 -13 -345 4 -127 23 -115 38 -115 -140
0 -177 -14 -156 117 -175 118 -17 290 -12 408 11 258 49 474 165 660 353 112
113 182 209 248 341 103 206 145 378 154 633 l6 172 -155 0 -156 0 -4 -144
c-2 -80 -5 -147 -8 -149 -3 -3 -94 -6 -204 -8 l-199 -4 -39 65 c-144 242 -446
329 -708 203 -33 -16 -84 -55 -126 -97 -113 -113 -159 -232 -152 -399 1 -48 1
-87 -2 -88 -3 0 -85 -2 -182 -5 l-178 -5 0 181 0 182 -129 -4 -130 -3 -33 -31
c-71 -67 -176 -94 -272 -69 -68 18 -100 38 -155 101 -62 71 -84 140 -79 249 5
107 33 171 104 240 107 104 286 104 403 -1 l49 -44 120 0 121 0 3 408 3 408
25 49 c20 38 40 58 80 83 50 30 61 33 121 30 88 -5 152 -43 188 -112 35 -69
33 -128 -7 -207 -32 -62 -32 -62 -32 -215 l0 -154 495 0 495 0 0 -150 0 -150
144 0 c122 0 145 2 150 16 3 9 6 141 6 295 l0 279 -480 0 c-264 0 -480 1 -480
3 0 1 7 27 15 57 19 73 19 203 -1 271 -54 183 -196 321 -375 364 -60 14 -152
18 -209 8z"/>
<path d="M8271 7261 c-7 -5 -22 -48 -32 -97 -11 -49 -30 -104 -43 -124 -27
-40 -52 -53 -139 -70 -59 -12 -97 -37 -97 -64 0 -26 49 -54 125 -71 93 -20
127 -54 145 -142 26 -124 32 -138 67 -141 41 -4 57 20 73 113 19 117 53 151
171 176 69 14 99 33 99 63 0 34 -27 53 -104 70 -37 9 -81 25 -96 36 -31 22
-63 95 -75 170 -12 78 -49 109 -94 81z"/>
<path d="M2680 3851 c-92 -25 -163 -66 -240 -137 -124 -117 -183 -256 -184
-429 -1 -126 27 -218 96 -322 108 -160 269 -246 463 -246 164 0 300 58 412
177 80 84 114 143 142 246 85 307 -108 643 -410 715 -84 19 -198 18 -279 -4z
m297 -162 c70 -26 100 -95 68 -155 -18 -33 -24 -36 -120 -63 -31 -8 -47 -21
-73 -59 -47 -70 -87 -86 -143 -57 -61 32 -87 121 -55 183 54 102 232 186 323
151z"/>
<path d="M7290 3621 c-71 -15 -81 -23 -336 -268 -206 -198 -242 -245 -251
-336 -4 -39 1 -67 17 -110 26 -69 -35 -3 905 -977 290 -301 316 -322 440 -355
76 -19 204 -19 280 0 182 48 322 190 370 375 24 92 22 228 -4 310 -40 126 -14
98 -769 867 -315 322 -455 457 -485 471 -49 24 -118 33 -167 23z m194 -463
c33 -35 137 -142 230 -238 399 -409 642 -662 653 -683 18 -32 16 -51 -8 -81
-15 -19 -30 -26 -55 -26 -29 0 -43 10 -101 73 -76 81 -280 292 -544 562 -335
342 -348 359 -329 409 11 29 36 45 69 46 17 0 43 -19 85 -62z"/>
<path d="M1633 3180 c-68 -28 -52 -132 23 -146 37 -7 80 25 89 67 12 50 -59
101 -112 79z"/>
<path d="M3740 2977 c0 -24 -72 -162 -106 -204 -19 -24 -59 -62 -89 -85 l-54
-42 27 -18 c45 -30 227 -106 366 -154 370 -127 706 -184 1086 -184 454 0 859
77 1275 242 132 53 275 119 275 128 0 4 -12 16 -27 25 -80 53 -171 168 -204
259 -8 21 -19 40 -24 43 -6 2 -58 -16 -117 -41 -245 -103 -522 -175 -828 -218
-144 -20 -555 -17 -705 5 -302 45 -547 115 -837 241 -29 13 -38 13 -38 3z"/>
<path d="M2128 2803 c-9 -10 -23 -54 -32 -98 -24 -119 -67 -164 -173 -183 -86
-15 -112 -28 -119 -58 -10 -39 19 -60 116 -84 127 -31 161 -73 185 -228 7 -46
34 -73 66 -65 26 7 33 23 53 116 26 118 63 153 193 183 76 17 103 36 103 70 0
30 -32 51 -98 64 -131 24 -172 69 -202 215 -7 33 -17 66 -22 73 -15 18 -52 15
-70 -5z"/>
</g>
</svg>
