<?xml version="1.0" standalone="no"?>
<!DOCTYPE svg PUBLIC "-//W3C//DTD SVG 20010904//EN"
 "http://www.w3.org/TR/2001/REC-SVG-20010904/DTD/svg10.dtd">
<svg version="1.0" xmlns="http://www.w3.org/2000/svg"
 width="1024.000000pt" height="1024.000000pt" viewBox="0 0 1024.000000 1024.000000"
 preserveAspectRatio="xMidYMid meet">

<g transform="translate(0.000000,1024.000000) scale(0.100000,-0.100000)"
fill="#000000" stroke="none">
<path d="M0 5120 l0 -5120 5120 0 5120 0 0 5120 0 5120 -5120 0 -5120 0 0
-5120z m5161 3520 c607 -35 1157 -224 1639 -564 157 -110 266 -203 412 -348
267 -267 464 -541 633 -883 91 -185 132 -289 194 -495 198 -654 178 -1413 -54
-2055 -68 -186 -178 -422 -237 -506 l-16 -24 -59 57 c-74 72 -149 115 -234
136 -38 10 -69 19 -70 22 -2 3 30 70 70 148 159 314 246 605 292 977 18 148
16 513 -5 665 -72 530 -263 983 -592 1407 -83 108 -319 345 -434 437 -399 319
-834 504 -1365 582 -146 22 -532 25 -670 6 -151 -21 -342 -62 -480 -103 -875
-258 -1584 -950 -1875 -1828 -95 -287 -130 -497 -137 -816 -10 -437 51 -775
208 -1153 l39 -94 -23 -6 c-36 -9 -145 -69 -188 -103 -23 -18 -63 -59 -90 -91
l-49 -58 -41 81 c-83 167 -167 415 -219 654 -98 451 -90 1038 20 1476 188 748
634 1411 1252 1862 488 356 1132 584 1743 616 77 5 147 9 155 9 8 1 90 -3 181
-8z m-1 -770 c423 -37 861 -210 1185 -471 237 -190 457 -446 603 -702 143
-251 252 -589 281 -876 59 -572 -118 -1202 -449 -1600 -28 -33 -50 -64 -50
-70 0 -5 37 -40 82 -78 128 -106 272 -234 282 -251 7 -12 -2 -26 -35 -56 -24
-22 -151 -141 -282 -265 -131 -125 -243 -226 -249 -226 -7 0 -87 93 -180 207
l-169 207 -47 -29 c-199 -122 -519 -230 -822 -276 -159 -25 -481 -25 -640 0
-320 49 -649 167 -896 322 -593 371 -978 972 -1055 1644 -14 130 -6 479 14
605 52 316 175 629 348 887 260 389 605 682 1004 853 337 144 715 206 1075
175z m3184 -622 c8 -13 17 -43 21 -68 12 -75 44 -148 75 -170 15 -11 59 -27
96 -36 77 -17 104 -36 104 -70 0 -30 -30 -49 -99 -63 -118 -25 -152 -59 -171
-176 -16 -93 -32 -117 -73 -113 -35 3 -41 17 -67 141 -18 88 -52 122 -145 142
-153 34 -168 107 -28 135 87 17 112 30 139 70 13 20 32 75 43 124 10 49 25 92
32 97 25 16 58 9 73 -13z m-5385 -3393 c99 -24 192 -78 263 -154 148 -156 202
-364 147 -561 -28 -103 -62 -162 -142 -246 -114 -121 -249 -178 -417 -177
-195 2 -350 85 -458 246 -69 104 -97 196 -96 322 1 174 60 312 186 430 139
132 330 184 517 140z m4498 -257 c30 -14 170 -149 485 -471 640 -653 682 -697
717 -752 95 -150 98 -372 9 -549 -58 -114 -189 -216 -323 -251 -76 -19 -204
-19 -280 0 -124 33 -150 54 -440 355 -940 974 -879 908 -905 977 -16 43 -21
71 -17 110 9 91 45 138 251 336 206 199 238 227 276 247 62 33 154 32 227 -2z
m-5729 -445 c29 -32 23 -67 -15 -101 -46 -41 -123 -9 -123 50 0 83 83 114 138
51z m2182 -235 c465 -193 1048 -255 1560 -167 227 39 480 112 678 195 59 25
111 43 117 41 5 -3 16 -22 24 -43 33 -91 124 -206 204 -259 15 -9 27 -21 27
-25 0 -9 -143 -75 -275 -128 -414 -164 -822 -242 -1270 -242 -383 0 -721 57
-1091 184 -139 48 -321 124 -366 154 l-27 18 54 42 c30 23 70 61 89 85 34 42
106 180 106 204 0 10 9 10 38 -3 20 -9 80 -34 132 -56z m-1712 -110 c5 -7 15
-40 22 -73 30 -146 71 -191 202 -215 66 -13 98 -34 98 -64 0 -34 -27 -53 -103
-70 -130 -30 -167 -65 -193 -183 -20 -94 -27 -109 -54 -116 -35 -9 -57 22 -74
107 -25 129 -56 160 -193 191 -81 18 -109 41 -99 80 7 29 34 42 119 57 106 19
149 64 173 183 9 44 23 88 32 98 18 20 55 23 70 5z"/>
<path d="M4830 7470 c-436 -30 -860 -232 -1175 -561 -440 -460 -620 -1074
-495 -1691 55 -269 177 -520 365 -753 280 -346 662 -575 1110 -666 154 -31
475 -38 631 -15 411 63 751 232 1030 510 312 313 490 701 526 1148 43 531
-145 1044 -527 1446 -166 174 -338 299 -560 407 -213 104 -415 157 -665 175
-69 5 -127 9 -130 8 -3 0 -52 -4 -110 -8z m-31 -375 c178 -42 321 -181 375
-364 20 -68 20 -198 1 -271 -8 -30 -15 -56 -15 -57 0 -2 216 -3 480 -3 l480 0
0 -279 c0 -154 -3 -286 -6 -295 -5 -14 -28 -16 -150 -16 l-144 0 0 150 0 150
-495 0 -495 0 0 154 c0 153 0 153 32 215 40 79 42 138 7 207 -36 69 -100 107
-188 112 -60 3 -71 0 -121 -30 -40 -25 -60 -45 -80 -83 l-25 -49 -3 -408 -3
-408 -121 0 -120 0 -49 44 c-117 105 -296 105 -403 1 -71 -69 -99 -133 -104
-240 -5 -109 17 -178 79 -249 56 -63 87 -83 158 -102 96 -24 198 2 269 70 l33
31 130 3 129 4 0 -181 0 -181 153 1 c83 0 166 3 182 5 l30 5 -3 89 c-7 166 37
281 152 396 106 105 224 154 374 154 191 0 356 -92 457 -254 l45 -73 198 5
c108 2 199 6 201 8 3 3 7 70 9 149 l5 145 155 0 155 0 -6 -172 c-7 -192 -27
-311 -78 -455 -72 -205 -177 -372 -328 -524 -186 -186 -422 -309 -676 -353
-136 -24 -346 -20 -482 10 -23 4 -23 7 -23 159 0 178 -12 163 115 140 95 -17
254 -19 345 -4 213 34 440 172 573 348 38 51 137 228 137 245 0 3 -125 6 -279
6 l-278 0 -5 80 c-6 99 -39 159 -112 205 -44 27 -58 30 -126 30 -68 0 -82 -3
-126 -30 -68 -42 -103 -108 -104 -191 0 -67 6 -86 63 -186 36 -63 38 -70 35
-145 -2 -43 -6 -77 -10 -75 -5 1 -240 2 -523 2 l-515 0 0 131 c0 131 0 131
-22 126 -72 -18 -182 -29 -245 -23 -242 20 -449 192 -525 436 -29 95 -31 268
-4 370 34 124 113 248 212 330 139 114 332 157 512 111 l72 -18 0 226 c0 245
9 312 56 404 36 72 96 140 164 186 122 81 277 109 419 76z"/>
<path d="M6520 3947 c-30 -29 -79 -72 -108 -97 l-52 -45 62 -76 c126 -152 115
-142 138 -126 11 7 65 58 121 112 l102 99 -69 63 c-38 35 -85 76 -104 92 l-36
29 -54 -51z"/>
<path d="M2867 3689 c-83 -20 -180 -88 -213 -151 -32 -62 -6 -151 55 -183 57
-29 98 -12 142 56 25 39 39 51 72 60 98 27 104 30 122 63 32 60 2 129 -68 155
-33 13 -57 13 -110 0z"/>
<path d="M7357 3209 c-28 -16 -39 -55 -24 -89 14 -33 44 -65 467 -500 174
-179 347 -359 385 -400 82 -89 86 -92 127 -88 41 4 73 46 64 84 -4 15 -53 75
-109 133 -82 86 -599 619 -798 824 -47 48 -75 57 -112 36z"/>
</g>
</svg>
